<?xml version="1.0" encoding="UTF-8"?>
<svg xmlns="http://www.w3.org/2000/svg" xmlns:xlink="http://www.w3.org/1999/xlink" width="502px" height="404px" viewBox="0 0 502 404" version="1.1">
  <!-- Generator: Sketch 64 (93537) - https://sketch.com -->
  <title>SR_Securitize ID</title>
  <desc>Created with Sketch.</desc>
  <g id="SR_Securitize-ID" stroke="none" stroke-width="1" fill="none" fill-rule="evenodd" transform="translate(0.000000, 0.000000)">
    <g id="undraw_profile_6l1l" transform="translate(40.000000, 62.000000)">
      <line x1="0" y1="277.678756" x2="71.3665768" y2="277.678756" id="Path" stroke="#3F3D56"></line>
      <rect id="Rectangle" fill="#EDF6F8" fill-rule="nonzero" x="104.47035" y="13.923365" width="316.850404" height="214.52965" rx="5"></rect>
      <rect id="Rectangle" stroke="#091C2A" x="94.7971698" y="0.380912156" width="316.850404" height="214.52965" rx="5"></rect>
      <line x1="94.7971698" y1="20.9483297" x2="411.647574" y2="20.9483297" id="Path" stroke="#091C2A"></line>
      <rect id="Rectangle" fill="#265171" fill-rule="nonzero" opacity="0.3" x="284.17655" y="69.1679742" width="86.4137466" height="13.3274933" rx="6.66374663"></rect>
      <rect id="Rectangle" fill="#265171" fill-rule="nonzero" opacity="0.3" x="267.624663" y="106.14102" width="119.51752" height="10.7479784" rx="5.37398922"></rect>
      <rect id="Rectangle" fill="#265171" fill-rule="nonzero" opacity="0.3" x="267.624663" y="135.375521" width="119.51752" height="10.7479784" rx="5.37398922"></rect>
      <rect id="Rectangle" fill="#265171" fill-rule="nonzero" opacity="0.3" x="267.624663" y="164.610023" width="119.51752" height="10.7479784" rx="5.37398922"></rect>
      <rect id="Rectangle" stroke="#091C2A" x="288.475741" y="64.8687828" width="86.4137466" height="13.3274933" rx="6.66374663"></rect>
      <rect id="Rectangle" stroke="#091C2A" x="271.923854" y="101.841829" width="119.51752" height="10.7479784" rx="5.37398922"></rect>
      <rect id="Rectangle" stroke="#091C2A" x="271.923854" y="131.07633" width="119.51752" height="10.7479784" rx="5.37398922"></rect>
      <rect id="Rectangle" stroke="#091C2A" x="271.923854" y="160.310831" width="119.51752" height="10.7479784" rx="5.37398922"></rect>
      <circle id="Oval" fill="#265171" fill-rule="nonzero" opacity="0.3" cx="118.872642" cy="13.2784863" r="6.44878706"></circle>
      <circle id="Oval" fill="#265171" fill-rule="nonzero" opacity="0.3" cx="136.929245" cy="13.2784863" r="6.44878706"></circle>
      <circle id="Oval" fill="#265171" fill-rule="nonzero" opacity="0.3" cx="154.985849" cy="13.2784863" r="6.44878706"></circle>
      <circle id="Oval" stroke="#091C2A" cx="121.452156" cy="10.6989715" r="6.44878706"></circle>
      <circle id="Oval" stroke="#091C2A" cx="139.50876" cy="10.6989715" r="6.44878706"></circle>
      <circle id="Oval" stroke="#091C2A" cx="157.565364" cy="10.6989715" r="6.44878706"></circle>
      <path d="M194.905561,205.882256 C193.825883,200.908745 193.539604,194.115661 193.902766,189.390355 C193.902766,189.390355 188.443498,165.406697 184.147926,163.169015 L184.146615,163.170305 C184.080837,163.254905 181.996181,165.987922 181.731733,174.444689 C181.46324,183.035695 178.421481,188.67353 178.421481,188.67353 C178.421481,188.67353 179.405802,199.381809 178.843004,205.882256 L194.905561,205.882256 Z" id="Path" fill="#265171" fill-rule="nonzero"></path>
      <path d="M234.619027,53.2609618 L135.54135,53.2609618 C132.830862,53.2609618 130.231386,54.3376909 128.314778,56.2542934 C126.398171,58.1708959 125.321429,60.770369 125.321429,63.4808576 L125.321429,195.662364 C125.321429,198.372852 126.398171,200.972325 128.314779,202.888927 C130.231386,204.805529 132.830862,205.882256 135.54135,205.882256 L170.302462,205.882256 C169.141594,201.067445 167.698442,193.547587 169.160016,188.319023 L169.159333,188.315583 L169.160279,188.31784 C169.228503,188.073831 169.300978,187.833158 169.382164,187.599673 C170.386095,184.206426 170.720726,180.650357 170.367431,177.129393 C171.012838,174.120973 171.012838,171.009876 170.367431,168.001457 C169.293579,162.990474 168.541849,158.068081 168.541849,158.068081 C168.541849,158.068081 167.94985,151.44632 168.466699,147.387066 C168.478139,147.297901 168.491471,147.213379 168.50396,147.126789 C168.321537,147.08528 168.219203,147.061321 168.219203,147.061321 C168.219203,147.061321 169.740605,140.170624 170.277479,135.785625 C170.404276,134.750453 170.571114,133.438129 170.751745,132.038975 C170.256079,131.956602 169.768179,131.832876 169.293158,131.669094 C164.460717,129.968807 162.939383,114.576579 162.939383,114.576579 L162.939383,109.699388 C162.939383,109.699388 161.328549,102.226997 166.96641,98.9159064 C172.395399,95.7274369 174.562944,94.8548172 174.716188,94.7945167 C174.757542,94.7649469 174.79795,94.7380769 174.840147,94.7054074 C175.453711,94.223854 175.939409,93.5987746 176.254439,92.8852544 C176.261945,92.7623749 176.263712,92.6402621 176.25974,92.518916 C176.168055,90.7705854 174.950984,89.1805638 173.796101,87.7931374 C172.811148,86.6098365 171.826144,85.4265185 170.841091,84.2431833 C170.503625,83.8907052 170.244291,83.4710184 170.080018,83.0115208 C170.017683,82.7579391 169.990629,82.49697 169.999623,82.235994 C169.998835,82.1394313 169.999408,82.0429861 170.001342,81.9466584 C170.017393,81.0643612 170.041359,80.1822459 170.073242,79.3003127 C170.10095,78.5297944 170.294917,77.5576226 171.049481,77.3992876 C171.441928,77.3169194 171.961378,77.4605339 172.168836,77.1173639 C172.238455,76.9759529 172.256229,76.8145914 172.219059,76.6614174 C172.216539,76.6728576 172.215907,76.6848222 172.21261,76.6960259 C172.210091,76.6816709 172.207627,76.6672428 172.204949,76.6530985 C172.049686,76.035282 171.956006,75.4036044 171.925282,74.7673184 C171.916967,74.4801717 171.957974,74.1937266 172.046519,73.9204465 C172.483627,72.6413682 173.988817,72.1165058 175.318776,71.8752051 C176.648838,71.6338742 178.141853,71.426262 178.976657,70.3631408 C179.200101,70.0101126 179.442477,69.6694286 179.702721,69.3425815 C180.085674,68.9944297 180.556196,68.757119 181.063798,68.6561124 C182.714871,68.2382668 184.458869,68.3930469 186.010547,69.0951373 C186.653903,69.3887118 187.300145,69.7840741 188.005904,69.7393324 C188.738947,69.6929011 189.365145,69.1769552 190.088901,69.0514231 C191.257899,68.8486904 192.375521,69.7245346 192.9516,70.7617575 C193.31746,71.4215488 193.500433,72.1670934 193.4816,72.9212972 C193.495425,73.6721542 193.224445,74.4004003 192.723154,74.9595825 C192.220075,75.4933056 191.469398,75.8599106 191.260526,76.5629874 C191.175402,76.8491631 191.195178,77.1573807 191.119981,77.4462864 C191.110587,77.4823996 191.095316,77.5161096 191.082982,77.5510362 C191.096787,77.5689595 191.111847,77.5859112 191.125492,77.6039163 C192.910969,79.9568691 193.447487,83.028362 192.565414,85.8472735 C191.683341,88.6661849 189.491728,90.8840112 186.683503,91.7995366 C186.68009,91.890069 186.676521,91.9806745 186.676994,92.0717012 C186.624691,93.2131694 187.070058,94.3212072 187.897793,95.108951 L195.871606,98.3789159 C195.871606,98.3789159 200.671933,97.7970634 202.404206,104.960793 C202.681885,106.151535 202.781824,107.376815 202.700773,108.596817 C202.63785,109.676993 202.784637,111.57862 204.015143,114.039593 C205.983889,117.977141 205.536442,127.015572 201.509415,127.91047 C197.695039,128.758103 196.211259,128.402001 196.064997,128.361984 L196.056338,128.520237 C196.119158,130.216221 196.722837,144.843837 198.91426,146.613814 C199.520252,147.103273 199.40448,147.433898 198.907231,147.656703 L198.908435,147.658148 C198.908435,147.658148 198.912476,147.752111 198.921818,147.921258 C198.98763,148.991095 199.325916,153.06512 200.793058,155.383365 C202.493818,158.068025 202.315303,173.550625 202.315303,173.550625 L203.477744,182.678587 C203.477744,182.678587 202.762277,188.316422 203.477744,189.300373 C203.884258,189.858344 204.37652,198.502152 204.726659,205.882256 L234.619053,205.882256 C240.263321,205.882256 244.838949,201.306632 244.838949,195.662364 L244.838949,63.4808576 C244.838949,60.770369 243.762206,58.1708959 241.845599,56.2542934 C239.928992,54.3376909 237.329516,53.2609618 234.619027,53.2609618 Z" id="Path" fill="#265171" fill-rule="nonzero"></path>
      <rect id="Rectangle" stroke="#091C2A" x="115.003369" y="41.6531494" width="119.51752" height="152.621294" rx="23.77165"></rect>
      <path d="M43.3462488,97.2751544 C43.3462488,97.2751544 39.3376011,96.0898674 38.4777628,97.3796248 C37.6179245,98.6693822 39.650019,108.019135 39.650019,108.019135 L48.4830903,108.555927 L45.4004755,100.771584 L43.3462488,97.2751544 Z" id="Path" fill="#2F2E41" fill-rule="nonzero"></path>
      <path d="M12.4436526,174.054452 C12.4436526,174.054452 20.4808447,191.699331 14.2912817,191.145027 C8.10171867,190.590724 5.69979914,174.054452 5.69979914,174.054452 L12.4436526,174.054452 Z" id="Path" fill="#A0616A" fill-rule="nonzero"></path>
      <path d="M65.0086231,172.216195 C65.0086231,172.216195 61.4827315,191.282038 67.3539308,189.245627 C73.2251301,187.209217 71.5518204,170.583379 71.5518204,170.583379 L65.0086231,172.216195 Z" id="Path" fill="#A0616A" fill-rule="nonzero"></path>
      <path d="M41.6362239,92.8510587 C41.6362239,92.8510587 41.5438429,101.719689 44.9619623,102.181594 C48.3800817,102.643499 43.0219479,107.354961 43.0219479,107.354961 L36.9247659,108.555923 L28.1485256,107.909256 L24.2685054,102.92065 C24.2685054,102.92065 31.1047399,99.6872974 28.1485256,89.6177056 L41.6362239,92.8510587 Z" id="Path" fill="#A0616A" fill-rule="nonzero"></path>
      <path d="M41.6362239,92.8510587 C41.6362239,92.8510587 41.5438429,101.719689 44.9619623,102.181594 C48.3800817,102.643499 43.0219479,107.354961 43.0219479,107.354961 L36.9247659,108.555923 L28.1485256,107.909256 L24.2685054,102.92065 C24.2685054,102.92065 31.1047399,99.6872974 28.1485256,89.6177056 L41.6362239,92.8510587 Z" id="Path" fill="#000000" fill-rule="nonzero" opacity="0.1"></path>
      <path d="M57.3410883,167.864889 C57.3410883,167.864889 61.6830223,177.195424 58.2649029,206.480381 C58.2649029,206.480381 59.2811027,216.827115 58.4496692,218.767126 C57.6182357,220.707136 50.7819969,247.035887 50.7819969,247.035887 C50.7819969,247.035887 41.913367,252.142703 39.6962095,241.758257 C39.6962095,241.758257 42.0057523,234.841527 41.913367,233.548184 C41.8209817,232.254841 43.8533814,218.120467 43.8533814,218.120467 L39.6962095,190.775525 L36.5552203,215.4414 C36.5552203,215.4414 36.5552203,222.554782 35.5390247,224.125268 C34.5228292,225.695754 35.5390247,257.290245 35.5390247,257.290245 C35.5390247,257.290245 38.4028537,262.094088 34.0609198,262.186469 C29.7189858,262.27885 25.8389613,262.094088 25.4694157,259.04548 C25.0998701,255.996872 24.9151253,252.948298 23.9913107,251.100665 C23.0674962,249.253031 21.8665343,228.097656 22.1436816,220.707131 C22.420829,213.316606 16.0464996,175.347786 18.0788908,171.375376 C20.1112819,167.402967 57.3410883,167.864889 57.3410883,167.864889 Z" id="Path" fill="#091C2A" fill-rule="nonzero"></path>
      <circle id="Oval" fill="#A0616A" fill-rule="nonzero" cx="36.9247659" cy="85.0910096" r="11.0857874"></circle>
      <path d="M25.8389785,103.105413 C25.8389785,103.105413 32.582832,108.094018 42.3752764,104.121612 C42.3752764,104.121612 45.6086295,102.551118 45.3314864,100.149203 C45.0543433,97.7472873 52.0753399,119.456948 52.0753399,119.456948 L59.1887217,157.241007 L58.8191933,172.668728 C58.8191933,172.668728 55.6782041,171.098233 45.8857768,174.608742 C36.0933496,178.119251 20.1113206,170.636332 20.1113206,170.636332 L20.6656111,131.004645 L21.2198972,107.909256 L22.6980022,102.828269 C22.6980022,102.828269 23.4370418,101.442545 25.8389785,103.105413 Z" id="Path" fill="#DAECF1" fill-rule="nonzero"></path>
      <path d="M41.944304,96.9038032 C41.944304,96.9038032 43.5762383,96.6387064 45.1467244,99.133007 C46.7172104,101.627308 50.4124728,103.197794 50.4124728,103.197794 C50.4124728,103.197794 59.3734838,103.752084 60.6668267,108.555927 C61.9601696,113.359771 65.1935227,119.918858 66.7640087,132.020841 C68.3344947,144.122824 71.4754667,163.430574 71.9373762,165.00106 C72.3992856,166.571546 71.2907047,171.375385 72.5840476,172.85349 C73.8773906,174.331595 63.4382703,174.331595 63.4382703,174.331595 C63.4382703,174.331595 62.5144558,166.756308 61.8677757,166.756308 C61.2210957,166.756308 61.4058706,171.837294 62.0525421,175.532557 C62.6992135,179.227819 57.3410797,175.532557 57.3410797,175.532557 C57.3410797,175.532557 53.1839122,158.626731 49.2115023,143.383776 C45.2390925,128.140821 42.9295755,119.734096 43.6686065,116.315976 C44.4076375,112.897857 46.4400544,103.105421 44.9619494,102.181598 C43.4838444,101.257775 41.944304,96.9038032 41.944304,96.9038032 Z" id="Path" fill="#265171" fill-rule="nonzero"></path>
      <path d="M28.6220858,96.8956562 C28.6220858,96.8956562 26.2085198,98.2091925 20.1113206,102.551126 C14.0141214,106.89306 9.85696673,110.218794 9.85696673,110.218794 C9.85696673,110.218794 7.4550472,112.066423 5.97694651,123.05983 C4.49884582,134.053236 1.17309885,162.506755 2.46644609,166.109637 C3.75979333,169.712518 4.22169845,171.837294 3.75978903,173.962071 C3.29787961,176.086847 13.4598525,175.994466 13.6446145,175.532565 C13.8293766,175.070665 13.3674714,166.663936 13.8293809,166.479174 C14.2912903,166.294411 16.7855865,171.467779 17.247496,175.809709 C17.7094054,180.151638 23.0675349,183.569749 24.2685054,183.569749 C25.4694759,183.569749 31.6590303,158.534345 31.7514113,141.443757 C31.8437924,124.353168 29.7190159,109.941647 28.1485299,107.909252 C26.5780439,105.876856 28.6220858,96.8956562 28.6220858,96.8956562 Z" id="Path" fill="#265171" fill-rule="nonzero"></path>
      <path d="M44.869577,247.86732 C44.869577,247.86732 45.6086295,245.834925 48.1953154,246.481596 C50.7820012,247.128268 52.5372493,244.818729 52.5372493,244.818729 C52.5372493,244.818729 53.9229732,244.633963 52.9991544,246.389224 C52.0753356,248.144485 51.3362874,249.345434 51.3362874,249.345434 C51.3362874,249.345434 56.8791832,262.001707 53.2763018,265.050298 C49.6734203,268.098889 45.5162613,266.25126 45.5162613,266.25126 C45.5162613,266.25126 41.4514748,263.387431 41.6362411,255.81214 C41.6362411,255.81214 41.4514791,253.41022 39.2343216,249.530196 C37.0171641,245.650171 35.3543014,239.737751 38.0333597,238.629166 C40.712418,237.520581 41.4019739,237.479408 41.4019739,237.479408 C41.4019739,237.479408 40.1483297,243.213329 43.3865838,245.216989 L44.869577,247.86732 Z" id="Path" fill="#3F3D56" fill-rule="nonzero"></path>
      <path d="M27.6866076,262.186461 C27.6866076,262.186461 25.4694501,258.029289 29.1647126,257.567384 C32.859975,257.105479 36.8323849,256.828331 36.6476185,258.768341 C36.4628522,260.708351 36.0009471,263.664566 36.0009471,263.664566 L36.6476185,265.789342 C36.6476185,265.789342 36.8323849,271.055091 37.479052,271.701762 C38.1257192,272.348433 41.6362239,277.891308 34.153318,277.891308 C26.670412,277.891308 24.4532545,277.059874 25.099926,275.304626 C25.7465975,273.549378 25.9313595,264.86551 25.9313595,264.86551 L27.6866076,262.186461 Z" id="Path" fill="#3F3D56" fill-rule="nonzero"></path>
      <path d="M33.4142655,76.2223797 C33.4142655,76.2223797 38.5876329,77.6081037 41.2666998,78.1623941 C43.9457667,78.7166846 43.6686194,77.1461942 43.6686194,77.1461942 C43.6686194,77.1461942 47.1791198,77.6081037 46.9943534,77.2385753 C46.8095871,76.8690469 48.4724584,74.9290497 46.5324483,72.7118793 C44.5924382,70.4947089 45.1467244,68.8318591 45.1467244,68.8318591 L43.4838573,68.8318591 L43.0219479,68.1851876 L40.435262,68.1851876 C40.435262,68.1851876 38.4952519,67.4461351 33.4142526,68.1851876 C28.3332533,68.9242401 21.4046506,69.1090021 20.8503602,72.1575974 C20.2960698,75.2061927 17.4322408,78.9938319 18.4484407,80.74908 C19.4646405,82.504328 25.2846752,89.7100909 25.8389656,92.7586819 C26.3932561,95.8072729 28.9813865,96.4846148 28.8882832,94.5754557 C28.7951799,92.6662966 26.2084897,86.0148285 28.4256472,85.7376854 C30.6428047,85.4605423 34.4304611,79.8252611 33.4142655,76.2223797 Z" id="Path" fill="#091C2A" fill-rule="nonzero"></path>
    </g>
  </g>
</svg>
