<svg width="26" height="26" viewBox="0 0 26 26" fill="none" xmlns="http://www.w3.org/2000/svg">
<path d="M13 26C20.1797 26 26 20.1797 26 13C26 5.8203 20.1797 0 13 0C5.8203 0 0 5.8203 0 13C0 20.1797 5.8203 26 13 26Z" fill="#26A17B"/>
<path d="M14.562 14.1241V14.1224C14.4721 14.1282 14.0112 14.1559 12.9839 14.1559C12.1631 14.1559 11.5855 14.1326 11.3821 14.122V14.1245C8.22359 13.9853 5.86528 13.4352 5.86528 12.7771C5.86528 12.1202 8.22359 11.5696 11.3821 11.4292V13.5772C11.5888 13.5916 12.1806 13.6265 12.9974 13.6265C13.9781 13.6265 14.47 13.5858 14.562 13.5772V11.4303C17.7142 11.5707 20.0665 12.1212 20.0665 12.7771C20.0665 13.4347 17.7142 13.9837 14.562 14.1241ZM14.562 11.2067V9.28432H18.9603V6.35276H6.98308V9.28432H11.3821V11.2062C7.80717 11.3703 5.11877 12.0784 5.11877 12.9266C5.11877 13.7748 7.80717 14.4827 11.3821 14.648V20.8079H14.562V14.6463C18.1306 14.4816 20.8134 13.7742 20.8134 12.9266C20.8134 12.0792 18.1306 11.3716 14.562 11.2067Z" fill="white"/>
</svg>
